<?xml version="1.0" standalone="no"?>
<!DOCTYPE svg PUBLIC "-//W3C//DTD SVG 20010904//EN"
 "http://www.w3.org/TR/2001/REC-SVG-20010904/DTD/svg10.dtd">
<svg version="1.0" xmlns="http://www.w3.org/2000/svg"
 width="6634.000000pt" height="6258.000000pt" viewBox="0 0 6634.000000 6258.000000"
 preserveAspectRatio="xMidYMid meet">

<g transform="translate(0.000000,6258.000000) scale(0.100000,-0.100000)"
fill="#000000" stroke="none">
<path d="M46899 54736 c-2 -2 -186 -39 -409 -81 -460 -87 -1989 -379 -2575
-491 -214 -41 -391 -76 -392 -78 -2 -1 -188 -288 -415 -637 l-413 -635 -1272
-1660 c-699 -912 -1775 -2316 -2390 -3119 l-1118 -1460 -6715 -1970 c-3693
-1084 -7364 -2161 -8158 -2394 l-1443 -423 -29 23 c-90 71 -1979 1665 -1979
1670 -1 4 688 856 1530 1895 l1531 1889 -43 3 c-24 1 -689 -31 -1477 -73
l-1433 -75 -362 -269 c-244 -181 -437 -315 -592 -411 -126 -79 -521 -325 -878
-548 -519 -325 -651 -403 -666 -396 -10 5 -438 362 -950 794 -512 432 -937
786 -944 788 -6 1 -318 -67 -692 -152 -374 -85 -1858 -422 -3297 -748 -2072
-469 -2614 -595 -2606 -605 6 -7 102 -90 214 -185 112 -94 204 -177 204 -183
0 -7 44 -49 98 -92 609 -497 3876 -3164 3935 -3212 68 -56 76 -66 64 -80 -8
-9 -294 -367 -638 -796 -343 -429 -1078 -1347 -1633 -2040 -920 -1149 -1346
-1690 -1335 -1698 2 -2 825 9 1828 23 l1824 25 241 247 c596 610 2201 2228
2208 2226 8 -3 1395 -1134 4751 -3874 l577 -471 405 -8 c222 -4 518 -4 657 -1
139 3 548 8 908 11 360 3 698 7 750 10 52 3 307 10 565 15 1019 22 2540 77
3325 120 709 40 894 49 897 47 4 -5 -1004 -1349 -1502 -2002 -2089 -2738
-3926 -5008 -5660 -6990 -798 -913 -1351 -1517 -2121 -2320 -845 -880 -1557
-1564 -2224 -2139 -222 -191 -566 -520 -548 -524 13 -2 334 -27 4042 -307
l1799 -137 171 78 c234 107 758 368 1000 499 1178 634 2358 1416 3631 2404
131 102 242 185 246 184 4 -1 65 -40 135 -86 1133 -742 2682 -1117 3944 -956
1085 138 1972 660 2515 1479 444 671 642 1521 529 2275 -140 935 -721 1748
-1627 2275 -59 34 -106 66 -105 70 2 4 142 158 313 343 l309 337 36 -21 c347
-207 671 -354 1065 -484 431 -143 887 -235 1430 -287 179 -17 906 -17 1090 0
1184 112 2086 496 2746 1169 182 185 314 355 444 568 503 826 604 1925 262
2825 -154 405 -373 738 -691 1055 -401 399 -910 693 -1506 870 -69 20 -126 38
-128 40 -6 6 559 755 570 755 18 0 757 107 1148 166 3917 591 7380 1341 10445
2264 458 138 725 223 991 316 2111 735 4810 1980 6583 3036 1877 1119 2887
2046 3037 2787 22 113 15 287 -16 386 -137 440 -647 760 -1585 994 -833 208
-1952 323 -3576 367 l-237 6 -121 129 c-465 491 -1134 919 -1926 1232 -965
381 -2108 600 -3440 658 -306 13 -1313 7 -1590 -10 -927 -57 -1795 -157 -2722
-314 -152 -26 -253 -39 -253 -32 1 5 16 71 34 145 l34 134 83 -4 c151 -9 552
-3 664 9 469 51 945 188 1295 373 633 334 1018 810 1146 1421 31 150 43 427
25 582 -78 680 -441 1217 -1021 1508 -313 158 -661 237 -1039 237 -118 0 -152
3 -149 13 3 6 42 167 88 357 45 190 138 571 205 848 118 485 121 502 100 502
-12 0 -24 -2 -26 -4z m-1099 -973 c0 -5 -31 -125 -69 -268 -39 -143 -361
-1349 -716 -2680 -356 -1331 -648 -2421 -650 -2423 -1 -2 -130 -32 -286 -67
-1187 -266 -2240 -555 -3629 -995 -488 -155 -779 -242 -792 -238 -14 5 4247
6301 4274 6315 13 6 435 90 938 186 1054 201 930 179 930 170z m1148 -1214
c586 -63 1029 -354 1262 -827 141 -286 192 -656 134 -966 -145 -763 -894
-1311 -1938 -1417 -142 -14 -561 -6 -681 14 -71 11 -80 15 -77 32 2 11 71 297
153 635 82 338 253 1043 380 1565 127 523 232 951 233 952 1 1 42 6 91 11 128
13 329 14 443 1z m3432 -4709 c454 -13 800 -36 1150 -75 141 -16 406 -52 452
-61 l27 -5 -85 -141 c-47 -77 -83 -146 -81 -152 3 -7 444 -309 982 -672 l976
-659 -132 -127 c-119 -115 -134 -126 -153 -116 -11 6 -518 289 -1126 629 -608
339 -1110 619 -1116 621 -6 2 -109 -67 -230 -153 -697 -498 -1439 -956 -2134
-1319 -118 -61 -216 -113 -218 -115 -6 -6 106 -380 114 -378 12 2 643 215
1209 407 253 86 453 150 445 143 -8 -8 -337 -279 -730 -602 -393 -323 -721
-594 -729 -601 -13 -11 6 -85 130 -524 79 -280 147 -510 151 -510 18 0 538
247 898 426 1125 562 1953 1087 2470 1567 l74 68 -25 23 c-13 13 -222 198
-464 411 -504 444 -497 438 -435 401 459 -267 1379 -812 1379 -816 -1 -12
-400 -332 -648 -519 -1129 -851 -2622 -1685 -4008 -2239 -133 -53 -240 -98
-239 -100 4 -3 327 92 606 179 2081 650 3825 1503 4995 2442 323 260 758 677
935 899 l85 106 75 8 c116 12 1156 8 1425 -5 652 -32 1029 -69 1454 -141 1156
-198 1685 -576 1551 -1106 -231 -909 -2355 -2261 -6325 -4024 -989 -440 -2427
-1046 -2926 -1234 -1193 -449 -2542 -781 -4989 -1225 -797 -145 -1633 -289
-3280 -566 -575 -97 -1366 -230 -1758 -296 -393 -66 -718 -119 -723 -117 -6 2
27 55 72 118 367 512 793 1129 785 1137 -10 10 -1345 6 -1661 -6 -2412 -89
-4785 -427 -7274 -1037 -427 -104 -1212 -315 -1493 -400 -13 -4 -525 -695
-767 -1035 l-34 -47 -81 -6 c-182 -14 -916 -57 -1281 -76 -214 -11 -424 -22
-465 -25 -41 -3 -253 -12 -470 -20 -1817 -68 -3271 -68 -4930 0 -212 9 -414
20 -450 24 l-65 7 -2425 2029 c-1334 1116 -2460 2059 -2502 2095 l-78 65 288
290 c1068 1075 1285 1299 1266 1306 -15 6 -3176 60 -3461 59 l-72 0 -1388
1162 c-1470 1231 -2286 1913 -2495 2087 -99 82 -123 108 -110 113 9 4 717 120
1572 258 855 139 1927 312 2382 386 455 74 835 134 843 134 12 0 5879 -5330
6100 -5541 l41 -39 183 439 c101 241 186 443 190 448 3 6 463 127 1021 270
12513 3214 17842 4584 18005 4628 505 140 1232 321 1885 470 3014 687 5800
1034 7840 975z m3116 -536 c49 -20 140 -60 203 -90 l114 -54 -74 -53 c-41 -29
-120 -88 -177 -130 -57 -43 -107 -76 -110 -73 -21 11 -258 149 -261 152 -4 4
202 284 210 284 3 0 45 -16 95 -36z m827 -452 c64 -47 117 -89 117 -93 0 -4
-57 -71 -127 -150 l-127 -142 -147 153 -146 153 116 107 115 108 41 -26 c22
-13 93 -63 158 -110z m-33053 -207 c0 -13 -2333 -2600 -2344 -2599 -15 1
-1301 1084 -1301 1095 0 6 1232 913 1930 1419 l84 62 653 12 c771 15 978 18
978 11z m30150 -1269 c-8 -8 -412 -347 -898 -755 l-882 -741 -23 53 c-64 145
-179 428 -176 431 2 1 101 52 219 113 118 61 420 216 670 345 250 129 590 304
755 388 165 84 309 159 320 167 25 17 33 17 15 -1z m-36492 -3895 c684 -27
1245 -51 1248 -53 4 -5 -440 -504 -2534 -2850 -306 -343 -369 -408 -395 -413
-18 -3 -601 -84 -1297 -181 -696 -96 -1326 -183 -1400 -194 -74 -10 -136 -17
-138 -16 -1 2 478 556 1064 1232 587 676 1303 1501 1592 1834 516 595 601 690
612 690 3 0 564 -22 1248 -49z m23592 -3386 c0 -15 -1132 -1450 -1625 -2060
-3089 -3821 -6036 -6997 -8895 -9586 -722 -653 -1588 -1390 -2270 -1930 -1186
-940 -2381 -1764 -3160 -2182 l-105 -56 -2284 -90 c-1257 -50 -2286 -89 -2288
-87 -2 2 79 77 179 167 1351 1210 3043 2931 4569 4649 2694 3033 5224 6361
7527 9901 l193 295 387 77 c1498 297 3231 539 5182 722 1039 97 2590 205 2590
180z m-668 -2936 c1512 -302 2390 -1512 2133 -2939 -126 -703 -533 -1296
-1159 -1690 -427 -269 -958 -441 -1561 -507 -202 -22 -827 -25 -1005 -5 -753
84 -1350 274 -1898 604 -63 38 -295 200 -321 224 -3 3 13 23 36 47 105 110
835 956 1244 1442 654 777 1416 1718 2009 2480 128 165 248 319 267 343 40 49
15 49 255 1z m-5466 -6369 c428 -215 760 -484 1015 -822 295 -393 449 -827
466 -1313 10 -299 -29 -575 -123 -865 -244 -759 -776 -1325 -1525 -1620 -229
-90 -514 -161 -794 -196 -198 -26 -638 -26 -865 -1 -800 88 -1556 351 -2175
755 -150 98 -317 222 -313 232 2 4 64 58 138 121 1048 881 2038 1795 3135
2896 269 270 576 582 680 691 105 110 193 201 196 201 4 1 78 -35 165 -79z"/>
<path d="M47211 52054 c-249 -54 -478 -285 -587 -589 -57 -160 -77 -278 -78
-460 0 -88 5 -192 12 -231 27 -163 104 -366 183 -481 54 -79 159 -183 238
-234 108 -71 209 -102 341 -102 92 -1 116 3 191 30 479 167 733 852 542 1457
-137 435 -486 688 -842 610z m167 -574 c175 -178 214 -515 90 -768 -40 -81
-129 -179 -197 -215 -57 -31 -149 -51 -192 -42 l-30 7 33 37 c150 166 247 525
218 811 -5 58 -19 138 -30 178 -11 39 -20 74 -20 77 0 15 85 -41 128 -85z"/>
<path d="M45279 43765 c-219 -55 -379 -200 -463 -420 -30 -77 -30 -85 -31
-245 0 -127 4 -180 17 -228 94 -337 358 -620 675 -722 282 -91 546 -44 737
132 310 283 278 819 -71 1189 -118 125 -272 223 -433 275 -74 24 -104 28 -230
30 -101 2 -162 -1 -201 -11z m335 -370 c268 -92 480 -413 436 -661 -29 -171
-139 -266 -304 -266 -243 0 -481 199 -576 482 -29 85 -25 230 7 301 70 156
239 212 437 144z"/>
<path d="M42982 43140 c-432 -116 -616 -601 -402 -1057 215 -460 730 -709
1144 -553 85 32 203 117 260 185 61 76 122 200 141 290 17 82 19 236 4 321
-36 203 -144 399 -307 556 -100 96 -170 144 -285 198 -124 58 -184 71 -342 76
-117 3 -152 1 -213 -16z m328 -360 c98 -29 182 -84 274 -181 121 -128 186
-274 186 -421 0 -152 -66 -261 -190 -311 -139 -57 -339 1 -489 139 -315 292
-300 740 26 793 59 10 109 5 193 -19z"/>
<path d="M40825 42594 c-11 -2 -45 -9 -75 -15 -129 -26 -285 -125 -366 -232
-58 -77 -86 -132 -115 -227 -34 -107 -34 -318 -1 -434 73 -254 231 -472 446
-611 176 -115 340 -161 535 -152 192 9 316 62 446 192 94 93 143 182 176 315
28 110 23 304 -11 419 -48 168 -143 326 -274 457 -183 182 -397 280 -636 289
-58 2 -114 2 -125 -1z m254 -385 c175 -60 336 -224 409 -417 22 -57 26 -84 26
-177 1 -94 -2 -117 -22 -160 -29 -63 -73 -110 -137 -143 -44 -24 -61 -27 -145
-27 -73 1 -109 6 -154 23 -185 68 -328 215 -407 414 -29 74 -33 94 -33 183 0
74 4 110 17 140 42 94 103 153 189 181 58 19 176 11 257 -17z"/>
<path d="M38315 42029 c-178 -26 -334 -113 -432 -243 -176 -232 -192 -558 -43
-856 287 -571 998 -761 1368 -366 71 77 111 144 148 251 26 74 28 92 28 230 0
172 -16 248 -82 389 -53 113 -111 196 -201 289 -173 180 -366 280 -591 307
-95 11 -110 11 -195 -1z m260 -383 c99 -36 170 -83 253 -171 160 -167 225
-373 172 -546 -18 -63 -30 -82 -74 -125 -64 -62 -122 -84 -223 -84 -131 0
-256 56 -374 167 -84 80 -133 153 -177 263 -139 347 91 617 423 496z"/>
<path d="M36005 41549 c-252 -39 -445 -199 -528 -438 -40 -112 -49 -291 -22
-422 91 -452 511 -809 950 -809 206 0 351 57 486 190 84 84 144 189 176 310
25 95 23 299 -5 402 -62 230 -201 435 -392 580 -85 65 -245 143 -341 167 -93
24 -243 33 -324 20z m210 -364 c117 -30 202 -81 300 -179 74 -74 99 -107 134
-178 58 -118 79 -225 63 -320 -29 -166 -122 -256 -278 -266 -152 -10 -284 47
-420 183 -79 78 -98 103 -137 185 -53 113 -67 165 -67 258 0 237 176 375 405
317z"/>
<path d="M33705 41044 c-126 -23 -251 -89 -339 -178 -82 -83 -127 -154 -163
-258 -35 -100 -43 -295 -19 -418 34 -164 118 -331 240 -474 121 -141 339 -274
521 -317 128 -30 317 -24 423 14 166 58 296 171 370 317 61 123 76 191 76 340
-1 252 -92 471 -275 664 -101 107 -189 172 -310 230 -170 83 -359 112 -524 80z
m227 -355 c29 -6 91 -29 138 -51 71 -34 100 -56 176 -132 75 -76 99 -108 134
-179 57 -118 78 -225 62 -319 -29 -167 -125 -257 -284 -266 -210 -12 -442 143
-552 370 -53 109 -65 157 -66 254 -1 233 165 370 392 323z"/>
<path d="M31455 40649 c-249 -38 -444 -199 -529 -438 -29 -82 -31 -93 -31
-241 0 -122 4 -170 19 -225 81 -296 279 -537 551 -670 142 -70 244 -95 391
-95 205 0 352 58 484 190 84 83 133 168 171 290 20 62 24 97 24 205 0 149 -17
231 -74 365 -70 162 -195 322 -341 432 -85 65 -245 143 -341 167 -93 24 -243
33 -324 20z m210 -364 c118 -30 202 -80 301 -179 73 -74 99 -108 133 -176 76
-155 88 -303 35 -420 -48 -106 -129 -160 -250 -168 -152 -10 -284 48 -420 183
-76 75 -98 105 -134 178 -53 110 -70 173 -70 263 0 90 21 159 65 216 77 101
200 138 340 103z"/>
<path d="M29280 40294 c-14 -2 -52 -9 -85 -15 -33 -6 -102 -31 -154 -56 -77
-37 -108 -59 -170 -122 -268 -269 -263 -718 14 -1085 142 -190 365 -335 586
-381 90 -19 266 -19 346 0 242 57 429 245 489 490 25 102 23 275 -5 389 -24
102 -88 244 -151 335 -55 83 -158 190 -239 252 -85 65 -246 143 -342 168 -76
19 -240 34 -289 25z m227 -385 c130 -43 276 -165 356 -296 112 -184 120 -410
18 -533 -102 -124 -313 -133 -500 -23 -214 126 -364 403 -330 611 35 221 221
319 456 241z"/>
<path d="M27132 39980 c-222 -30 -411 -165 -505 -360 -69 -142 -89 -279 -66
-445 61 -439 448 -820 878 -864 222 -23 422 42 566 184 75 74 125 155 161 260
39 114 46 309 15 438 -74 310 -306 591 -591 714 -148 64 -321 91 -458 73z
m197 -365 c229 -54 439 -271 491 -506 17 -78 8 -211 -18 -270 -45 -103 -134
-160 -258 -167 -229 -12 -468 159 -573 412 -74 178 -61 340 36 447 79 87 188
115 322 84z"/>
<path d="M24860 39784 c-214 -45 -399 -216 -477 -439 -26 -75 -28 -90 -27
-235 1 -139 3 -164 28 -245 106 -348 387 -625 727 -717 121 -32 304 -32 409 1
198 61 329 174 416 356 51 107 67 196 61 345 -11 255 -108 465 -306 661 -146
144 -310 236 -492 274 -87 18 -252 18 -339 -1z m334 -372 c249 -90 448 -377
434 -624 -14 -244 -218 -363 -465 -273 -182 66 -329 214 -402 407 -67 175 -48
332 52 433 31 30 71 59 97 68 63 23 205 17 284 -11z"/>
<path d="M22638 39725 c-232 -57 -412 -234 -479 -470 -32 -112 -32 -294 0
-414 51 -196 152 -364 304 -507 114 -107 223 -175 354 -220 165 -56 290 -67
431 -38 453 93 660 561 461 1039 -34 84 -111 205 -183 289 -119 138 -326 267
-503 312 -111 28 -288 32 -385 9z m302 -362 c164 -45 327 -187 409 -356 95
-194 77 -410 -41 -511 -199 -170 -582 -14 -734 299 -52 109 -63 155 -64 262 0
178 91 297 247 322 56 10 107 5 183 -16z"/>
<path d="M38251 34139 c-866 -187 -1490 -1332 -1290 -2367 70 -365 256 -687
501 -872 96 -73 234 -141 343 -171 112 -30 328 -37 447 -15 687 129 1260 882
1347 1770 67 675 -193 1299 -645 1552 -151 84 -265 114 -459 120 -125 3 -166
0 -244 -17z m-87 -685 c208 -54 377 -236 450 -486 31 -109 49 -269 41 -367
-38 -437 -266 -808 -587 -955 -103 -48 -167 -60 -291 -54 -98 4 -111 7 -193
47 -71 34 -102 57 -163 119 l-76 77 58 7 c242 30 484 376 588 838 21 91 24
130 23 295 -1 217 -16 297 -79 412 -24 44 -31 65 -22 68 58 19 175 19 251 -1z"/>
<path d="M32261 27770 c-334 -34 -695 -224 -991 -520 -458 -458 -721 -1129
-670 -1714 30 -347 141 -609 344 -812 355 -355 905 -384 1429 -75 540 319 950
941 1053 1596 23 150 23 436 0 565 -52 295 -150 496 -330 676 -110 110 -203
172 -336 223 -142 55 -331 78 -499 61z m-208 -605 c136 -35 266 -135 334 -255
187 -329 96 -836 -215 -1197 -121 -141 -303 -262 -472 -315 -61 -19 -97 -23
-190 -23 -132 1 -202 20 -299 82 l-56 36 62 13 c231 47 485 347 621 734 136
389 104 775 -74 887 l-44 28 47 12 c69 16 219 15 286 -2z"/>
</g>
</svg>
